<svg width="24" height="24" viewBox="0 0 24 24" fill="none" xmlns="http://www.w3.org/2000/svg">
<g clip-path="url(#clip0_747_10)">
<path d="M12 24C18.6274 24 24 18.6274 24 12C24 5.37258 18.6274 0 12 0C5.37258 0 0 5.37258 0 12C0 18.6274 5.37258 24 12 24Z" fill="#1877F2"/>
<path d="M16.6711 15.4685L17.2033 12H13.8751V9.74917C13.8751 8.80013 14.34 7.87508 15.8306 7.87508H17.3436V4.92204C16.4553 4.77827 15.5575 4.6998 14.6577 4.68726C11.9165 4.68726 10.1248 6.34847 10.1248 9.3563V12H7.07788V15.4685H10.1248V23.8539C11.3673 24.0486 12.6326 24.0486 13.8751 23.8539V15.4685H16.6711Z" fill="white"/>
</g>
<defs>
<clipPath id="clip0_747_10">
<rect width="24" height="24" fill="white"/>
</clipPath>
</defs>
</svg>
