<svg width="24" height="24" viewBox="0 0 24 24" fill="none" xmlns="http://www.w3.org/2000/svg">
<path d="M12 9C11.4067 9 10.8266 9.17595 10.3333 9.50559C9.83994 9.83524 9.45543 10.3038 9.22836 10.8519C9.0013 11.4001 8.94189 12.0033 9.05765 12.5853C9.1734 13.1672 9.45912 13.7018 9.87868 14.1213C10.2982 14.5409 10.8328 14.8266 11.4147 14.9424C11.9967 15.0581 12.5999 14.9987 13.1481 14.7716C13.6962 14.5446 14.1648 14.1601 14.4944 13.6667C14.8241 13.1734 15 12.5933 15 12C15 11.2044 14.6839 10.4413 14.1213 9.87868C13.5587 9.31607 12.7957 9 12 9Z" fill="#475569"/>
<path d="M24 12C24 9.421 21.6 7.173 18.041 5.959C16.827 2.4 14.579 0 12 0C8.134 0 5 5.373 5 12C4.99859 13.226 5.11006 14.4495 5.333 15.655C3.243 14.675 2 13.3 2 12C2.03031 11.5818 2.14363 11.1738 2.33336 10.7998C2.52308 10.4259 2.7854 10.0935 3.105 9.822C3.20443 8.87331 3.36983 7.9327 3.6 7.007C1.379 8.277 0 10.044 0 12C0 14.579 2.4 16.827 5.959 18.041C7.173 21.6 9.421 24 12 24C13.956 24 15.723 22.621 16.993 20.4C16.0672 20.6288 15.1266 20.7929 14.178 20.891C13.9069 21.2113 13.5746 21.4744 13.2007 21.6648C12.8267 21.8552 12.4185 21.9692 12 22C10.7 22 9.325 20.757 8.345 18.667C9.55053 18.8899 10.774 19.0014 12 19C18.627 19 24 15.866 24 12ZM7 12C7 6.106 9.635 2 12 2C13.3 2 14.675 3.243 15.655 5.333C14.4495 5.11006 13.226 4.99859 12 5C11.592 5 11.1893 5.012 10.792 5.036C10.3531 5.68582 10.0046 6.39229 9.756 7.136C10.5006 7.0458 11.25 7.00039 12 7C13.4996 6.99363 14.9938 7.17982 16.446 7.554C16.8202 9.00618 17.0064 10.5004 17 12C16.9999 12.75 16.9549 13.4994 16.865 14.244C17.6087 13.9954 18.3152 13.6469 18.965 13.208C18.9883 12.81 19 12.4073 19 12C19.0014 10.774 18.8899 9.55053 18.667 8.345C20.757 9.325 22 10.7 22 12C22 14.365 17.894 17 12 17C10.5004 17.0064 9.00618 16.8202 7.554 16.446C7.17982 14.9938 6.99363 13.4996 7 12V12Z" fill="#8444E9"/>
</svg>
