<svg width="43" height="48" viewBox="0 0 43 48" fill="none" xmlns="http://www.w3.org/2000/svg">
<g clip-path="url(#clip0_747_102)">
<path d="M22.4797 8.76074V13.1274L34.8858 24.0659L37.3736 21.8935L22.4797 8.76074Z" fill="#F9C601"/>
<path d="M39.8724 24.0879L37.3736 26.2602L39.8724 28.4545L42.3602 26.2822L39.8724 24.0879Z" fill="#F9C601"/>
<path d="M20.5203 8.76074V13.1274L8.11432 24.0659L5.62651 21.8935L20.5203 8.76074Z" fill="#F9C601"/>
<path d="M3.1277 24.0879L5.62652 26.2602L3.1277 28.4545L0.639893 26.2822L3.1277 24.0879Z" fill="#F9C601"/>
<path d="M21.7422 41.8835L33.4217 32.2396V18.0974L21.7422 28.4654V41.8835Z" fill="#8444E9"/>
<path d="M9.58936 32.2396L21.2688 41.8835V28.4654L9.58936 18.0974V32.2396Z" fill="#965EEE"/>
<path d="M21.522 6.88452L21.4009 6.98326L9.47925 17.461L21.4009 27.9277L21.522 28.0265L33.4216 17.461L21.522 6.88452Z" fill="#B085F5"/>
<path d="M22.4797 0.0273438L42.3602 17.5487L39.8724 19.7211L22.4797 4.39397V0.0273438Z" fill="#F9C601"/>
<path d="M39.8724 19.7212L37.3736 21.8935L34.8858 24.0659L32.3979 26.2382L22.4797 34.8727V39.2393L34.8858 28.4325L37.3736 26.2601L39.8724 24.0878L42.3602 21.9155V17.5488L39.8724 19.7212Z" fill="#FB9002"/>
<path d="M39.8724 28.4543L37.3736 30.6267L22.4797 43.6059V47.9725L39.8724 32.821L42.3602 30.6486V26.282L39.8724 28.4543Z" fill="#FB9002"/>
<path d="M20.5203 0.0273438L0.639893 17.5487L3.1277 19.7211L20.5203 4.39397V0.0273438Z" fill="#F9C601"/>
<path d="M3.1277 19.7212L5.62652 21.8935L8.11432 24.0659L10.6021 26.2382L20.5203 34.8727V39.2393L8.11432 28.4325L5.62652 26.2601L3.1277 24.0878L0.639893 21.9155V17.5488L3.1277 19.7212Z" fill="#FB9002"/>
<path d="M3.1277 28.4543L5.62652 30.6267L20.5203 43.6059V47.9725L3.1277 32.821L0.639893 30.6486V26.282L3.1277 28.4543Z" fill="#FB9002"/>
</g>
<defs>
<clipPath id="clip0_747_102">
<rect width="43" height="48" fill="white"/>
</clipPath>
</defs>
</svg>
