<svg width="24" height="24" viewBox="0 0 24 24" fill="none" xmlns="http://www.w3.org/2000/svg">
<path d="M21.055 19.848C22.5658 18.1127 23.5449 15.9791 23.8754 13.7022C24.206 11.4253 23.8739 9.10136 22.9189 7.00813C21.964 4.91489 20.4265 3.1409 18.4902 1.89814C16.5539 0.655378 14.3008 -0.00357938 12 1.46233e-05C11.7348 1.46233e-05 11.4804 0.105371 11.2929 0.292908C11.1054 0.480444 11 0.734798 11 1.00001C11 1.26523 11.1054 1.51959 11.2929 1.70712C11.4804 1.89466 11.7348 2.00001 12 2.00001C13.9052 1.99735 15.7714 2.53975 17.3784 3.56321C18.9853 4.58666 20.266 6.04846 21.0692 7.77608C21.8724 9.50369 22.1646 11.425 21.9114 13.3133C21.6581 15.2016 20.87 16.9781 19.64 18.433L17.854 16.646C17.789 16.581 17.7073 16.5351 17.618 16.5135C17.5286 16.4918 17.435 16.4953 17.3474 16.5234C17.2599 16.5515 17.1818 16.6032 17.1217 16.6728C17.0617 16.7425 17.022 16.8273 17.007 16.918L16.007 22.918C15.9951 22.9896 15.9989 23.0629 16.0182 23.1329C16.0375 23.2029 16.0718 23.2678 16.1187 23.3232C16.1656 23.3786 16.224 23.4231 16.2899 23.4536C16.3557 23.4841 16.4274 23.5 16.5 23.5C16.5275 23.5002 16.5549 23.4978 16.582 23.493L22.582 22.493C22.6727 22.478 22.7576 22.4383 22.8272 22.3783C22.8968 22.3182 22.9485 22.2401 22.9766 22.1526C23.0047 22.065 23.0082 21.9714 22.9865 21.8821C22.9649 21.7927 22.919 21.711 22.854 21.646L21.055 19.848Z" fill="#8444E9"/>
<path d="M12 22C10.0949 22.0022 8.22888 21.4595 6.6221 20.4359C5.01532 19.4123 3.7348 17.9505 2.93159 16.223C2.12838 14.4955 1.83598 12.5743 2.0889 10.686C2.34181 8.79776 3.12949 7.02122 4.359 5.56597L6.146 7.35397C6.19252 7.40037 6.24773 7.43715 6.30847 7.4622C6.36921 7.48725 6.4343 7.50009 6.5 7.49997C6.61835 7.49991 6.73285 7.45788 6.82312 7.38134C6.91339 7.3048 6.97359 7.19872 6.993 7.08197L7.993 1.08197C8.006 1.00353 8.0001 0.923127 7.9758 0.847426C7.9515 0.771725 7.9095 0.70291 7.85328 0.646691C7.79706 0.590472 7.72824 0.54847 7.65254 0.52417C7.57684 0.49987 7.49644 0.493973 7.418 0.506968L1.418 1.50697C1.32728 1.52194 1.24244 1.56165 1.17282 1.62171C1.1032 1.68177 1.05149 1.75987 1.02338 1.84742C0.995263 1.93496 0.991834 2.02856 1.01347 2.11793C1.0351 2.2073 1.08096 2.28897 1.146 2.35397L2.935 4.14197C1.42885 5.88029 0.454001 8.01483 0.126528 10.2915C-0.200944 12.5681 0.132756 14.8908 1.0879 16.9832C2.04304 19.0756 3.57938 20.8493 5.51398 22.0933C7.44859 23.3373 9.69995 23.9991 12 24C12.2652 24 12.5196 23.8946 12.7071 23.7071C12.8946 23.5195 13 23.2652 13 23C13 22.7348 12.8946 22.4804 12.7071 22.2929C12.5196 22.1053 12.2652 22 12 22Z" fill="#8444E9"/>
<path d="M15.983 14.214C15.9925 14.5923 15.9179 14.9679 15.7645 15.3138C15.6111 15.6597 15.3828 15.9672 15.096 16.214C14.3637 16.7954 13.4687 17.1348 12.535 17.185V19H11.423V17.234C10.2565 17.2549 9.09786 17.0392 8.017 16.6V14.833C8.55562 15.0876 9.11934 15.2854 9.699 15.423C10.2623 15.5711 10.8408 15.6539 11.423 15.67V12.54L10.723 12.28C9.96263 12.0288 9.2746 11.5967 8.718 11.021C8.2899 10.5166 8.06401 9.87131 8.084 9.21C8.07681 8.84526 8.15436 8.48383 8.31053 8.15415C8.4667 7.82446 8.69723 7.5355 8.984 7.31C9.6898 6.77416 10.5393 6.46082 11.424 6.41V5H12.536V6.381C13.6424 6.41485 14.7338 6.6472 15.758 7.067L15.146 8.6C14.3115 8.26442 13.4314 8.05577 12.535 7.981V11.027L13.171 11.27C13.9909 11.531 14.7425 11.9713 15.371 12.559C15.7791 13.0121 15.9981 13.6044 15.983 14.214ZM10.05 9.193C10.0421 9.48676 10.1498 9.77189 10.35 9.987C10.661 10.2689 11.0275 10.4828 11.426 10.615V8.015C11.053 8.05075 10.6983 8.19308 10.404 8.425C10.2919 8.51888 10.202 8.63646 10.1408 8.76926C10.0796 8.90206 10.0486 9.04678 10.05 9.193ZM14.008 14.339C14.0123 14.1891 13.9843 14.0401 13.9258 13.902C13.8673 13.764 13.7797 13.6401 13.669 13.539C13.3321 13.2678 12.9475 13.062 12.535 12.932V15.6C13.517 15.4513 14.008 15.031 14.008 14.339Z" fill="#475569"/>
</svg>
