<svg width="23" height="22" viewBox="0 0 23 22" fill="none" xmlns="http://www.w3.org/2000/svg">
<path d="M4.5 17H1.5C1.22386 17 1 17.2239 1 17.5V21.5C1 21.7761 1.22386 22 1.5 22H4.5C4.77614 22 5 21.7761 5 21.5V17.5C5 17.2239 4.77614 17 4.5 17Z" fill="#8444E9"/>
<path d="M10.5 10H7.5C7.22386 10 7 10.2239 7 10.5V21.5C7 21.7761 7.22386 22 7.5 22H10.5C10.7761 22 11 21.7761 11 21.5V10.5C11 10.2239 10.7761 10 10.5 10Z" fill="#8444E9"/>
<path d="M16.5 17H13.5C13.2239 17 13 17.2239 13 17.5V21.5C13 21.7761 13.2239 22 13.5 22H16.5C16.7761 22 17 21.7761 17 21.5V17.5C17 17.2239 16.7761 17 16.5 17Z" fill="#8444E9"/>
<path d="M22.5 10H19.5C19.2239 10 19 10.2239 19 10.5V21.5C19 21.7761 19.2239 22 19.5 22H22.5C22.7761 22 23 21.7761 23 21.5V10.5C23 10.2239 22.7761 10 22.5 10Z" fill="#8444E9"/>
<path d="M21.293 0.292919L15 6.58592L9.707 1.29292C9.51947 1.10545 9.26517 1.00013 9 1.00013C8.73484 1.00013 8.48053 1.10545 8.293 1.29292L1.293 8.29292C1.19749 8.38517 1.12131 8.49551 1.0689 8.61751C1.01649 8.73952 0.988904 8.87074 0.987751 9.00352C0.986597 9.1363 1.0119 9.26798 1.06218 9.39087C1.11246 9.51377 1.18671 9.62542 1.28061 9.71931C1.3745 9.81321 1.48615 9.88746 1.60905 9.93774C1.73194 9.98802 1.86362 10.0133 1.9964 10.0122C2.12918 10.011 2.2604 9.98343 2.38241 9.93102C2.50441 9.87861 2.61475 9.80243 2.707 9.70692L9 3.41392L14.293 8.70692C14.4805 8.89439 14.7348 8.99971 15 8.99971C15.2652 8.99971 15.5195 8.89439 15.707 8.70692L22.707 1.70692C22.8892 1.51832 22.99 1.26571 22.9877 1.00352C22.9854 0.741321 22.8802 0.490508 22.6948 0.3051C22.5094 0.119692 22.2586 0.0145233 21.9964 0.0122448C21.7342 0.00996641 21.4816 0.110761 21.293 0.292919Z" fill="#475569"/>
</svg>
